<svg xmlns="http://www.w3.org/2000/svg" viewBox="0 0 14 14">
    <path fill="#E49621"
          d="m4.814 4.326-4.37.406-.082.014a.49.49 0 0 0-.195.84l3.297 2.896-.965 4.283-.011.082a.49.49 0 0 0 .738.446L7 11.05l3.774 2.242.075.037a.49.49 0 0 0 .652-.565l-.966-4.283 3.298-2.896.058-.06a.49.49 0 0 0-.335-.794l-4.371-.406L7.449.296a.489.489 0 0 0-.898 0l-1.737 4.03ZM7 1.725 8.402 4.98l.042.078a.489.489 0 0 0 .362.216l3.529.327-2.663 2.34-.06.063a.489.489 0 0 0-.094.41l.779 3.458-3.047-1.81-.08-.037a.489.489 0 0 0-.42.038l-3.048 1.809.78-3.457.012-.088a.489.489 0 0 0-.166-.387L1.664 5.6l3.53-.326a.489.489 0 0 0 .404-.294L7 1.725Z"
          fill-rule="nonzero"/>
    <path fill="#E49621"
          d="m7.154.489.873 3.32.019 6.807-.892-.133-4.024 2.39 1.03-4.566L.643 5.22l4.659-.432L7.153.489Z"/>
</svg>