<svg xmlns="http://www.w3.org/2000/svg" viewBox="0 0 178.32199 97.90473">
    <polygon
            points="0 51.536 5.929 51.536 5.929 72.923 16.66 61.444 23.862 61.444 13.572 71.991 24.205 87.344 17.247 87.344 9.604 76.111 5.929 79.937 5.929 87.344 0 87.344 0 51.536"
            style="fill:#000"/>
    <rect x="27.53711" y="61.44448" width="5.92899" height="25.9" style="fill:#000"/>
    <path d="M85.62271,74.54228v-.099c0-4.562-3.283-8.338-7.937-8.338-4.754,0-7.791,3.727-7.791,8.24v.098a7.97917,7.97917,0,0,0,7.888,8.291c4.801,0,7.84-3.729,7.84-8.192m-21.657,0v-.099a13.796,13.796,0,0,1,27.585-.098v.098a13.53177,13.53177,0,0,1-13.865,13.489,13.38688,13.38688,0,0,1-13.72-13.39"
          style="fill:#000"/>
    <path d="M96.4371,51.53618h5.929v13.882a9.37528,9.37528,0,0,1,8.084-4.513c5.831,0,9.212,3.924,9.212,9.908v16.531h-5.929v-14.715c0-4.023-2.009-6.329-5.536-6.329-3.431,0-5.831,2.404-5.831,6.427v14.617h-5.929Z"
          style="fill:#000"/>
    <path d="M34.02112,55.19238a3.508,3.508,0,1,1-3.507-3.511,3.50983,3.50983,0,0,1,3.507,3.511" style="fill:#000"/>
    <path d="M56.70892,61.409h6.182l-9.411,26.68c-2.635,6.541-6.901,11.666-17.299,9.174V92.496c6.083,1.263,9.946.213,11.801-5.095l-10.081-25.992h6.38l6.493,18.583Z"
          style="fill:#000"/>
    <path d="M137.99509,12.69948l-4.83905-9.279a30.19867,30.19867,0,0,0-15.693,21.277l10.557,1.949a19.12219,19.12219,0,0,1,9.975-13.947"
          style="fill:#ffcb05"/>
    <path d="M127.79,29.61438a19.235,19.235,0,0,1,.23-2.968l-10.557-1.949a30.39577,30.39577,0,0,0,.262,12.225l10.68695-2.457a19.10511,19.10511,0,0,1-.62195-4.851"
          style="fill:#f7901e"/>
    <path d="M128.41183,34.46528l-10.686,2.458a29.99736,29.99736,0,0,0,3.764,9.143l9.483-5.886a19.01232,19.01232,0,0,1-2.561-5.715"
          style="fill:#faa61a"/>
    <path d="M130.97324,40.18068l-9.484,5.886a30.3671,30.3671,0,0,0,5.014,6.122,75.92625,75.92625,0,0,1-10.403,2.367,43.56741,43.56741,0,0,0,15.357,6.13l7.111-13.866a19.167,19.167,0,0,1-7.595-6.639"
          style="fill:#f26522"/>
    <path d="M146.87344,48.71918a18.99224,18.99224,0,0,1-8.306-1.899l-7.11,13.866a47.48081,47.48081,0,0,0,15.647.633v-12.602c-.077.001-.154.002-.231.002"
          style="fill:#faa61a"/>
    <path d="M147.10452,48.71688v12.602a47.99083,47.99083,0,0,0,8.509-1.881l-.005-.02a29.29925,29.29925,0,0,0,7.322-3.318l-6.184-10.133a18.98,18.98,0,0,1-9.642,2.75"
          style="fill:#8dc63f"/>
    <path d="M165.95718,29.61438a19.094,19.094,0,0,1-9.21106,16.352l6.18506,10.134a30.748,30.748,0,0,0,10.369-10.926l.016-.03a30.4965,30.4965,0,0,0,3.255-21.33l-10.924,2.357a19.2456,19.2456,0,0,1,.31,3.443"
          style="fill:#bfd730"/>
    <path d="M147.45834.00208a29.97483,29.97483,0,0,0-14.302,3.419l4.839,9.278a19.08264,19.08264,0,0,1,27.652,13.473l10.925-2.357a30.15425,30.15425,0,0,0-29.114-23.813"
          style="fill:#e2e419"/>
    <path d="M146.066,28.26708l-5.481-8.222h-9.366l13.241,20.43,7.682-.023c4.207-20.525,9.383-30.729,26.18-38.166-15.412.475-27.923,11.883-32.256,25.981"
          style="fill:#62bb46"/>
</svg>