<svg xmlns="http://www.w3.org/2000/svg" xmlns:xlink="http://www.w3.org/1999/xlink" width="106" height="31">
    <defs>
        <path id="a" d="M0 0h13.651v6.906H0z"/>
        <path id="c" d="M0 0h20.013v20.438H0z"/>
    </defs>
    <g fill="none" fill-rule="evenodd">
        <path fill="#FFF" d="M-15-4506h375V271H-15z"/>
        <path fill="#FFF" d="M-15 55h375v-80H-15z"/>
        <g transform="translate(65.95 23.1)">
            <mask id="b" fill="#fff">
                <use xlink:href="#a"/>
            </mask>
            <path fill="#020201" d="M4.59 3.38c0-.446-.081-.828-.244-1.145a1.704 1.704 0 0 0-.77-.743 1.988 1.988 0 0 0-.548-.18 5.457 5.457 0 0 0-.842-.048h-.441v4.24h.441c.415 0 .719-.019.913-.057.194-.038.384-.107.569-.206a1.69 1.69 0 0 0 .7-.73c.147-.306.222-.682.222-1.131Zm1.804.013c0 .631-.144 1.196-.432 1.695-.288.498-.651.882-1.09 1.148-.33.2-.693.34-1.087.419-.394.079-.86.118-1.4.118H0V0h2.454C3.005 0 3.48.046 3.88.139c.4.092.736.223 1.009.393.466.285.834.67 1.102 1.153.268.483.402 1.053.402 1.708ZM13.651 4.321c0 .837-.254 1.479-.763 1.924-.509.446-1.259.67-2.25.67-.99 0-1.74-.224-2.247-.67-.507-.445-.761-1.086-.761-1.92V0h1.754v4.225c0 .47.099.821.295 1.051.198.23.517.346.96.346.436 0 .755-.11.956-.332.202-.221.303-.576.303-1.065V0h1.753v4.321" mask="url(#b)"/>
        </g>
        <path fill="#020201" d="M84.892 29.874h-3.963v-1.201h1.109v-4.372h-1.109v-1.2h3.963v1.2h-1.109v4.372h1.109v1.201M92.449 23.101l-2.467 6.773h-1.954l-2.468-6.773h1.833l1.636 4.754 1.636-4.754h1.784M98.316 29.874h-4.893v-6.773h4.893v1.309h-3.158v1.169h2.932v1.311h-2.932v1.674h3.158v1.31M105.933 29.874h-1.681l-2.873-4.649v4.649H99.78v-6.773h2.086l2.467 3.879v-3.879h1.6v6.773"/>
        <g transform="translate(.933 .007)">
            <mask id="d" fill="#fff">
                <use xlink:href="#c"/>
            </mask>
            <path fill="#992337" d="M3.483 5.342c.049-.234.013-.301-.136-.26-.108.03-.216.078-.324.126-.097.044-.147.117-.143.245l.402-.222c.055.032.121.068.2.11" mask="url(#d)"/>
            <path fill="#992337" d="M1.004 13.314c.454-.006.984-.133 1.326.51H.57c.22-.271.325-.509.434-.51ZM2.48 6.82c-.305.05-.322-.103-.346-.258l.346.258ZM2.45 5.296c-.008-.017.058-.086.09-.133.142.116.142.123.322.052.256-.1.52-.14.762-.336.21.317.187.634-.062.927.039-.176.039-.176-.045-.387l-.326.147c-.152.245-.024.313.159.368l-.541.352c.004-.231-.202-.279-.33-.38.027-.159.33-.222.207-.405l-.298.234c.037-.17.123-.317.062-.439Zm.35-.557c.136.121.136.242 0 .364-.136-.122-.136-.243 0-.364Zm1.157.28c-.006.074-.01.149-.016.258-.181-.072-.006-.178.016-.258Zm.218 13.462c-.283.055-.396-.096-.256-.418.097.16.321.17.256.418Zm.673-6.21c.004.048.012.098.016.15l-.708.075c-.004-.06-.012-.121-.019-.18l.711-.045Zm.403-5.767c.117.216.129.37.044.489-.392-.046-.396-.05-.452-.398-.008-.053-.027-.105-.05-.198l.458.107Zm-.092-3.775.214-.086-.005.056-.209.053V2.73ZM5.977.895c.11-.019.242.07.55.17-.386.092-.59.138-.793.185l-.082-.137c.107-.076.206-.197.325-.218Zm.817 2.03c.136.122.136.242 0 .364-.137-.122-.137-.242 0-.364Zm-1.021.297c.023-.17.162-.1.262-.115.137.122.12.242.002.368l-.264-.253Zm2.577.625c.048-.018.096-.034.145-.05-.08-.037-.068-.114.025-.298.213-.082.323-.024.39.109a.097.097 0 0 1 .01.065 4.913 4.913 0 0 1 1.29-.12.246.246 0 0 1 .1.003 4.377 4.377 0 0 1 1.738.455c.009-.004.017-.01.025-.013.002.01.004.02.009.03.11.058.22.118.324.184a.782.782 0 0 1 .193-.089c.05-.017.102-.08.163-.131.052.112-.04.202-.123.294a1.38 1.38 0 0 1-.05.05c1.602 1.132 2.45 3.358 2.45 5.838 0 3.843-1.823 6.716-5.005 6.716-3.152 0-5.067-2.727-5.067-6.627 0-3.011 1.14-5.428 3.179-6.332.067-.08.143-.109.204-.084Zm4.247-1.92c-.13.13-.256.13-.382 0 .126-.129.253-.129.382 0Zm.307.474c.147.135.018.295.084.41-.12.178-.288.093-.51.128l-.21-.352c.062-.078.23.009.368-.03.098-.026.181-.103.268-.156Zm1.655 2.764c.132.168.268.336.399.505-.053.04-.106.079-.163.115l-.417-.492c.06-.041.12-.085.18-.128Zm.124-3.492c.12-.046.215-.078.21.053-.002.084-.14.272-.213.28-.038.005-.096-.04-.092-.071.014-.08.058-.165.095-.262Zm.48 1.843-.467-.694c.708-.019.742.022.466.694Zm.228 2.3c.024.01.044.05.036.079-.024.1-.06.201-.103.33-.195-.073-.199-.226-.034-.373.028-.023.079-.042.1-.035ZM15.645 14c-.147-.03-.147-.03-.165-.178.048.05.094.1.165.178Zm.96-8.263c-.156.12-.26.125-.372.026.079-.197.2-.144.373-.026ZM14.853 7.56c-.007-.04-.017-.058-.013-.08.036-.163.123-.142.278-.124-.125.096-.188.143-.265.204Zm.401 5.788c-.001.025-.075.052-.12.064-.014.003-.062-.038-.06-.057.003-.083.017-.163.035-.29.19.104.15.2.145.283Zm-.33.516c-.008-.006-.016-.01-.026-.015l.1-.133.034.031-.108.117Zm-.214 2.25c-.112-.045-.12-.09.008-.208l-.008.209Zm-3.87 2.312a.083.083 0 0 1-.073.008c-.012-.006-.007-.038-.014-.086.053.003.085 0 .11.01.006.003-.009.059-.024.068Zm-.995 1.36c-.026 0-.055-.071-.068-.113-.003-.014.04-.06.06-.059.087.004.17.018.305.035-.11.182-.212.143-.297.138Zm-5.333-5.434c-.137-.121-.137-.243 0-.364.136.121.136.243 0 .364Zm-.757.023c-.006-.002-.003-.057.006-.062.03-.019.065-.029.114-.048-.012.046-.016.088-.025.092a.22.22 0 0 1-.095.018Zm-.137-1.155-.057-.207c.047-.015.068-.029.08-.026.067.026.096.073-.023.233Zm-.67-6.154c-.099-.019-.089-.124.004-.226l.224-.25c.4-.036.4-.036.49.313-.075.135-.197.108-.294.165-.185.112-.294.022-.424-.002Zm-.259 5.2c.157-.12.262-.125.373-.027-.08.197-.2.144-.373.027Zm-1.203 2.728c.06-.267.06-.267.326-.251l-.326.251Zm16.722-3.907c.137.121.137.242 0 .362-.137-.12-.137-.24 0-.362Zm.155-3.123c.006-.016.041-.03.086-.062-.001.048.003.077-.005.106-.003.008-.057.028-.071.022-.013-.009-.018-.043-.01-.066ZM.925 14.971c.085-.096.184-.164.33-.162.011.09.024.203.038.302-.054.057-.08.095-.109.11-.04.02-.08.037-.12.055 1.502 3.102 4.53 5.162 8.722 5.162 2.137 0 4.027-.477 5.585-1.375h-.01c-.026-.002-.056-.073-.068-.115-.004-.013.04-.059.061-.057.075.002.15.014.258.028 2.755-1.702 4.401-4.775 4.401-8.891 0-2.031-.481-3.933-1.41-5.524l-.182-.011c0-.062.003-.122.003-.184h.06a8.771 8.771 0 0 0-2.135-2.37l-.796-.079c.093-.108.165-.22.211-.331A9.23 9.23 0 0 0 13.246.41a.177.177 0 0 1-.013.011L13.208.4l-.021-.006a.638.638 0 0 1-.1.204L12.892.49l.139-.138A11.694 11.694 0 0 0 10.126 0C4.008 0-.008 4.428-.008 10.351c0 1.676.322 3.243.933 4.62Z" mask="url(#d)"/>
        </g>
        <path fill="#992337" d="m39.9 12.56-.204-.032c-.016.05-.03.084-.039.12.137.093.14.093.242-.087M39.657 12.647l-.003-.002-.008.005c.003.001.005.003.008.003l.003-.006"/>
        <path fill="#992337" d="M39.737 14.687c-.004.006-.008.011-.01.017h-.017c-.137.085-.292.254-.396.183-.026-.018-.126.058-.193.093-.11.058-.22.12-.326.177.065-.474.065-.474.393-.71.01.06.015.128.033.182.035.09.083.149.232.088.096-.037.172-.015.257-.013a.104.104 0 0 1 .018-.01.02.02 0 0 1 .009-.007c.052-.088.09-.196.21-.226-.035.153-.14.168-.21.226Zm-.51.316c.137.121.137.243 0 .364-.136-.12-.136-.243 0-.364Zm.13.92c-.074.105-.243.179-.272.116-.013-.03.01-.113.043-.167.086-.133.222-.213.304-.16-.018.052-.027.136-.076.21Zm-.452-1.722c-.03-.052-.062-.101-.112-.185.224-.096.193.02.112.185Zm.326-5.207c-.021.152-.034.246-.049.344-.141.072-.255.134-.29-.036.094-.084.19-.173.339-.308Zm-.004 3.655c-.16-.185-.16-.365 0-.55.159.185.159.365 0 .55Zm.31.673c.021-.002.043-.006.064-.007-.006.016-.011.037-.022.047-.012.008-.03.005-.046.005 0-.015.003-.03.004-.045Zm-1.958-2.66c-.167-.041-.167-.041-.208-.215.074-.04.149-.08.255-.139l-.047.353Zm-.601-1.225c-.052-.096-.02-.254.092-.358.045-.041.135-.072.177-.06.059.016.139.076.126.12-.034.108.01.128.072.163.023.014-.006.097-.013.162-.308.13-.37.125-.454-.027Zm-.041 3.148a4.84 4.84 0 0 1-.126-.115c.143-.029.143-.029.126.115Zm-.368-3.93c-.145-.119-.141-.24-.006-.363h.186c.114.081.126.185.075.292-.066.11-.17.059-.255.072Zm-.025 7.144c.126.022.2.057.192.194-.136 0-.2-.047-.192-.194Zm-.37-4.708c-.126.075-.255.151-.258.343l-.068-.029.002-.153-.131.012c.07-.07.122-.13.181-.178.163-.131.206-.14.293-.041.258-.176.309-.168.413.027-.23.242-.28.249-.432.02Zm-.223 3.025c.126-.13.126-.13.242-.087l-.242.087Zm.194 1.512c-.05.122-.104.245-.027.341-.099.12-.182.261-.294.342a.423.423 0 0 1-.188.06c-.091.111-.186.109-.285.021.042-.148.116-.123.188-.09l.217-.37c-.28.12-.467.109-.596-.005-.117-.102-.316-.128-.34-.344.175-.184.355-.378.555-.594.141.185.204.423.489.402.054-.094-.062-.148.074-.242.117-.082.017-.14.013-.239.077.006.17-.017.195.02.053.069.081.165.092.263.015.136-.029.286-.093.435Zm-1.354 1c-.084.001-.073-.063-.086-.114a.023.023 0 0 1-.006.001l-.002.002-.232.192c.048-.189.147-.174.232-.192a.055.055 0 0 1 .007-.009l.001.006c.05-.019.106-.028.143-.061.06-.056.108-.13.155-.19.091-.006.012.223.184.07l.037.091a.62.62 0 0 1-.433.204Zm.79-1.606.075-.018a.335.335 0 0 1 .011-.047c.053.03.088.05.146.081-.103.06-.153.073-.162.028l-.079.004a.516.516 0 0 0 .01-.048Zm.25-1.106-.052.14a.457.457 0 0 1-.043.012l.054-.141c.015-.005.028-.008.042-.011Zm-.154-1.858c-.023-.007-.038-.073-.021-.102.054-.095.13-.164.23-.103-.015.041-.018.063-.03.076-.05.062-.096.151-.179.13Zm-.037-9.463.157-.013-.028.077-.145-.018a.274.274 0 0 1 .016-.046Zm.426 8.04.015.055c-.03.023-.06.05-.094.066-.02.01-.046.003-.118.002l.197-.122Zm.21-9.69c-.092.096-.192.184-.328.32L35.881.92c.202-.087.308-.08.395.026Zm.336 4.907c.048.113.07.17.098.238-.064.045-.11.077-.225.153.05-.155.078-.236.127-.391Zm-3.73 11.211.014.005c-.257.483-.332.55-.502.431.144-.231.225-.353.293-.41l-.04-.207c.2-.088.308-.08.396.025-.05.052-.104.1-.161.156Zm-1.534.43c.19-.137.19-.137.9-.047-.421.124-.653.128-.9.047Zm-1.538 2.498c.127-.129.253-.129.381 0-.128.131-.254.131-.381 0Zm-.473-.089c-.14-.118-.138-.237-.006-.361.088.1.229.157.257.298-.066.1-.166.051-.25.063Zm-.825-3.616c-.018.008-.053-.022-.055-.045-.003-.022.018-.066.039-.086a.352.352 0 0 1 .123-.074c.126-.037.252-.065.377-.096l.009.07c-.164.078-.328.159-.493.23Zm-.252.032c-.003-.015-.015-.03-.009-.042.007-.015.029-.03.046-.044l.033.029c-.022.017-.045.038-.07.057Zm-.366 1.315c.156-.118.26-.124.372-.026-.08.197-.2.144-.372.026Zm-.346-5.71c.112 0 .177.002.26 0-.125.077-.125.077-.26 0Zm-.629-6.468c.298-.402.446-.486.856-.466-.5.505-.64.578-.856.466Zm-.469-1.281c-.136.09-.274.103-.403.041l.175-.303c.171.108.4-.193.611-.125-.077.194-.238.293-.383.387Zm.097 2.314c-.102-.143-.102-.143.142-.423-.054.156-.094.28-.142.423Zm.033-1.62c.01.027.028.048.02.063-.023.038-.06.075-.09.112-.007-.017-.026-.032-.02-.049.022-.038.058-.079.09-.125Zm-.081-.503.07.376c-.24.054-.247.02-.07-.376Zm-.355 8.13.34-.215c-.06.147-.06.147-.34.215Zm.144 2.766-.059.004c.01-.046.025-.093.036-.14.019 0 .053-.004.053-.001a2.214 2.214 0 0 1-.03.137Zm-.218-6.332.084-.253h.054c-.032.085-.062.17-.094.253h-.044Zm-.045 6.271c-.017-.013-.04-.025-.05-.044-.004-.009.025-.054.03-.054.027 0 .051.008.092.015l-.072.083Zm-.103-5.784c.022-.084.046-.169.067-.253.015 0 .029-.002.043-.003l-.086.255h-.024Zm-.055 7.01c-.016-.01-.016-.04-.025-.07.032-.014.072-.038.078-.03.013.018.012.048.016.076-.024.009-.058.03-.069.024Zm-.369-7.17c-.029-.23-.029-.23.138-.47.264-.02.283.003.271.327-.189.127-.189.127-.409.143Zm-.069-7.689.034-.02c.026.056.049.114.075.172l-.074.044a9.172 9.172 0 0 0-.035-.196Zm-.081 6.173a.434.434 0 0 1-.01.027l-.013-.001c-.103.141-.251.19-.384.253-.138.064-.2-.034-.29-.088.285-.094.285-.094.247-.356l.16.045c-.03.076-.06.148-.087.219.02.005.04.02.051.013a.459.459 0 0 1 .303-.086.015.015 0 0 0 .006-.008l.017-.018c.055-.148.052-.16-.003-.372.142.069.14.235.003.372Zm-1.019 5.232c.279-.245.567-.335.834-.568.02.114.033.195.045.274-.291.26-.56.377-.879.294Zm-.085-1.503c-.036-.035-.066-.091-.059-.147.003-.05.064-.111.112-.185.037.05.062.08.106.135.039-.095.067-.168.115-.282.056.05.118.072.121.114a.379.379 0 0 1-.051.217c-.076.127-.277.21-.344.148Zm.292-4.102-.248.247c.015-.176.086-.225.248-.247Zm.12.097c.012.025.028.045.028.072 0 .023-.021.052-.054.127a7.502 7.502 0 0 1-.021-.171.602.602 0 0 0 .048-.028Zm1.248-5.514c.026.002.055.072.068.116.004.012-.04.057-.061.057-.085-.003-.17-.018-.304-.036.11-.18.212-.141.297-.137Zm1.334 2.156.082-.04-.075.195a.983.983 0 0 1-.046.02l.04-.175Zm.303-1.165-.07.258c-.067-.049-.12-.085-.173-.123.08-.046.161-.09.243-.135Zm.407 12.408c.19.104.15.203.143.283 0 .025-.073.052-.118.063-.014.005-.062-.036-.062-.057.004-.08.019-.16.037-.29Zm.045-1.272c.01-.046.014-.09.026-.176.125.23.125.23-.075.329.019-.056.036-.105.049-.153ZM39.408 8.55c.12.08.12.08-.065.227l.065-.227Zm.058-1.964.028.1c-.027-.01-.05-.01-.057-.02-.01-.015-.009-.04-.012-.061l.04-.019Zm.768 5.877c-.1.084-.08.151-.123.23-.06.027-.125.054-.189.08l-.154.291c-.123.004-.214-.024-.213-.147.001-.088-.042-.183.09-.268-.187-.045-.224-.225-.31-.379.136-.09.292-.15.34-.316-.014-.013-.023-.033-.036-.032-.27.03-.287.017-.173-.253.055-.135.136-.264.216-.413l.134.04c-.084.123-.135.247-.025.345a67.4 67.4 0 0 1 .265-.205l.1.142c.05-.057.1-.113.15-.172l.006.005c0-.049.003-.096.003-.145v-.312c-.063-.081-.063-.164 0-.246V.182h-4.697v11.349c0 1.524-.255 2.694-.745 3.533.114-.06.186-.063.212-.002.02.042-.016.093-.126.18a6.573 6.573 0 0 0-.099-.156 3.09 3.09 0 0 1-1.256 1.21c.006.021.014.042.021.062-.022.012-.064.036-.064.034-.009-.02-.014-.044-.02-.066-.501.245-1.086.365-1.754.365-1.326 0-2.344-.538-2.985-1.607-.1.104-.128.104-.566.03.225-.131.384-.137.537-.076-.493-.846-.754-2.015-.754-3.507V4.257l-.333-.298c.165-.052.262-.082.333-.09v-.932a12.53 12.53 0 0 0-.12.103c.028-.076.04-.133.054-.143.022-.016.044-.03.066-.044V.183h-2.056c.059.073.057.159.007.258-.1.084-.205.082-.313-.004.024-.122.124-.182.208-.255H23.32V11.21c0 3 .701 5.2 2.006 6.682a1.417 1.417 0 0 1 .018-.358l.095.484c1.423 1.532 3.523 2.252 6.193 2.252.844 0 1.636-.07 2.37-.211.046-.082.088-.16.12-.238.086-.208.054-.256-.162-.296.062-.08.201-.073.21-.202.002-.026.05-.082.078-.093.1-.038.195-.082.2-.201.004-.074-.02-.142-.03-.208.162-.033.205-.153.22-.323.078.016.145.027.22.04l-.3.304c.04.124.1.18.204.224.11.049.158.195.227.303.022.035 0 .096.088.076.175-.04.147.09.102.242l.316-.157-.001.112c2.795-1.046 4.493-3.418 4.777-7.206a.351.351 0 0 0-.038.029Z"/>
        <path fill="#992337" d="M34.433 19.768v.04c.042-.012.085-.027.13-.039l-.001-.045c-.044.016-.087.03-.13.044M40.238 11.695l.07-.045.003-.186c-.042.054-.082.106-.124.157.016.027.033.05.05.074M34.758 19.651a3.324 3.324 0 0 1-.083.136l.056.016.071-.14-.044-.012M51.02 3.797l.22-.215c.019-.046.032-.1.054-.16-.06.097-.153.22-.275.373l.001.002M47.813 10.108c.036-.05.06-.082.086-.104a.142.142 0 0 1 .015-.012 1.02 1.02 0 0 1-.032-.055.306.306 0 0 1-.07-.023v.194M47.813 11.55v.726l.02-.003.178-.652c-.067-.023-.133-.048-.198-.072"/>
        <path fill="#992337" d="M49.658 2.175c-.015-.06-.056-.132-.033-.163.265-.345.54-.293.937.066-.4.044-.654.07-.904.097Zm.077.95c-.006-.016-.012-.028-.01-.03l.215-.216c-.014.2-.129.196-.205.245Zm1.686-.595c-.049.147-.095.294-.146.449-.18-.045-.18-.045.146-.449Zm.608 1.063.432-.266c-.246.331-.246.331-.432.266Zm.367 1.124a35.07 35.07 0 0 0-.315.204c0 .06-.01.12-.027.172a1.166 1.166 0 0 1-.092-.095l-.135.088c0-.07.023-.13.055-.191a.775.775 0 0 1-.134-.536c.142.01.246.148.298.315.032-.04.064-.08.09-.123.129.017.334-.107.26.166Zm-.33 7.12-.08.077c-.024-.068-.045-.137-.07-.203.02-.02.04-.04.063-.06.028.063.057.125.087.187Zm-.059 6.165c.027.002.055.071.067.114.006.015-.039.06-.06.058-.084-.003-.169-.017-.303-.035.109-.18.212-.141.296-.137Zm-.648-5.766c-.11-.035-.24-.037-.359-.052.08-.288.15-.37.298-.324.163.05.308.131.484.208-.158.215-.283.211-.423.168Zm-.22 5.435c-.14-.025-.117-.12-.067-.236.029-.02.058-.037.087-.055l-.02.291Zm-.348-.806c-.064.018-.104.002-.132-.031-.03.06-.061.128-.104.213-.032-.103.002-.185.074-.263-.01-.022-.02-.047-.028-.07.188-.225.261-.139.37-.16.089-.016.098.063.037.154a.52.52 0 0 1-.217.157Zm.178 1.58a.458.458 0 0 0-.06.054c.011.06.014.132.007.218-.24.034-.52.07-.917.121.062-.284.103-.475.146-.662l-.017-.004.014-.02a1.48 1.48 0 0 1-.081-.053.406.406 0 0 1-.068.207c-.185-.094-.153-.235-.253-.348a.893.893 0 0 1 .007-.084 1.326 1.326 0 0 0-.449-.226c-.523-.113-.59-.484-.523-.777.044-.194.46-.318.71-.474.24.416.392.715.579.995.17.25.28.49.078.76l.006.005c-.002.006-.003.013-.003.019.206.032.468-.011.628.094a.31.31 0 0 1 .128-.063c.105.062.054.158.068.238Zm-.364 1.07.147-.017c-.03.027-.062.055-.094.075-.004.003-.022-.024-.053-.057Zm.316.375-.27-.04c.278-.127.278-.127.27.04Zm-1.02-.419.059-.137c.019-.044.04-.088.086-.186l.166.122c-.098.108-.174.183-.312.201Zm0-.691c.241.118.143.594-.024.46-.242-.118-.143-.596.023-.46Zm-.686 1.154c-.066.03-.136.038-.275.07l.295-.267c.094.093.089.147-.02.197Zm-.01-.546v.074c-.021.006-.046.016-.065.014-.01-.001-.01-.026-.014-.038.022-.015.045-.027.08-.05Zm-.474-.692c.125-.135.246-.27.372-.407.05.076.044.179-.088.297-.093.085-.24.259-.284.11Zm-.148-2.377c-.054-.205-.096-.205.003-.34.132.085.21.182.265.285-.037.146-.126.163-.268.055Zm.017.776-.034-.091c.012-.009.024-.02.036-.027l.06.069-.062.05Zm.411-1c.032.006.058.017.088.027a3.343 3.343 0 0 0-.038.049l-.08-.04c.01-.013.028-.037.03-.037Zm.3-2.218.03-.055c.037 0 .075-.005.11 0 .002 0-.022.043-.032.067a1.622 1.622 0 0 1-.108-.012Zm-.059-2.92-.153-.006a.65.65 0 0 0 .015-.045l.154.001a.348.348 0 0 1-.016.05Zm.342-.441-.37-.011c.293-.137.328-.137.37.01Zm.207 3.19c-.067.241-.221.022-.314.06.099-.151.206-.157.314-.06Zm.058 1.67c-.179.03-.312-.27-.232-.465.184.134.252.29.232.465Zm.076-6.326.222.183-.047.236c-.2-.111-.257-.25-.175-.42Zm-.12 7.31c.13-.061.297-.284.414-.162-.078.093-.16.223-.22.255-.106.051-.222.076-.195-.092Zm.095-6.142c.08-.12.126-.124.18-.065l-.18.065Zm.139.504-.006.006-.006.003c.022.028.061.053.052.079-.028.081-.077.163-.145.298-.012-.16-.071-.259.093-.377l-.003-.004.015-.005c.055-.066.112-.132.17-.197-.013.11-.08.165-.17.197Zm-.046 1.976c-.02-.015-.04-.028-.06-.045.056-.069.11-.138.168-.201.007-.008.053.026.05.03-.049.072-.105.143-.158.216Zm.124 2.254c.018.038.037.074.052.114a.156.156 0 0 1-.039.038c-.032-.024-.063-.051-.094-.078l.08-.074Zm-.608 1.176c-.057-.137-.029-.276.057-.296.259.213.2.507-.057.296Zm.16-.34a.411.411 0 0 1 .07-.087.2.2 0 0 0-.005-.023c-.017-.061-.074-.09-.11-.133l.06-.075c.141.078.287.151.422.243.027.015.01.089.012.137-.258.18-.34.203-.364.093-.01-.043-.009-.095-.009-.146a3.087 3.087 0 0 0-.075-.009Zm.573-6.03c.105.064.085.152-.092.36.035-.141.06-.231.092-.36Zm.328-.79c.043.02.089.025.106.052.039.065.078.155-.03.236-.05.037-.136.004-.234 0l.158-.289Zm-.213 6.013-.128-.229c.128-.066.206-.107.283-.15.083.164.08.171-.155.379Zm.45-4.53c.052.099-.02.191-.287.365l.025-.32c.106-.07.208-.154.263-.045Zm.463.453.578.48c-.151.056-.284.121-.3.107-.144-.169-.27-.35-.4-.528.04-.02.08-.04.122-.059Zm.07-4.563c-.104.097-.202.198-.274.268-.341-.35-.34-.357-.029-.798.148.02.306.031.456.062.142.03.131.21-.018.36-.04.04-.094.068-.135.108Zm.076-2.119.011.065-.2.144c-.004-.007-.005-.015-.008-.024l.197-.185Zm.433 4.759c-.143.01-.152-.11-.263-.21.107-.005.169-.025.18-.006.038.061.056.136.083.216Zm-.18-4.454c.144.244.144.404.05.565-.132-.127-.137-.127-.05-.565Zm1.404-1.767.114.038c-.014.023-.04.066-.045.066-.047 0-.089-.006-.132-.01.021-.033.041-.063.063-.094Zm.419-.085c-.126.13-.252.13-.38 0 .128-.13.254-.13.38 0Zm-.11-1.063c.04.175.082.349.12.524l-.24.045-.1-.528.22-.04Zm.31-1.126V.55l-.062.029c.021-.03.043-.062.062-.093Zm.546 2.815c.022-.023.062-.033.115-.059-.012.056-.01.095-.031.119-.015.018-.068.029-.085.018-.014-.009-.014-.06.001-.078ZM55.873.595c.027.002.056.071.069.115.004.013-.04.058-.06.058-.087-.003-.17-.02-.305-.036.11-.181.213-.142.296-.137Zm.225 1.855c.025.032.053.062.079.093l-.06.056c-.027-.029-.055-.054-.075-.086-.003-.003.035-.04.056-.063Zm.51-.75.02.214c.005.046 0 .1.022.134.104.172.095.198-.158.413-.086-.063-.227-.08-.09-.292.031-.051-.034-.14-.063-.234l.27-.234Zm.505 1.687c.02.008.014.055.022.095-.043.01-.082.03-.091.02-.018-.02-.02-.055-.028-.084.034-.013.077-.04.097-.03Zm.472-1.885c.026.002.055.072.069.115.003.013-.04.058-.061.058-.085-.004-.17-.019-.303-.035.109-.182.21-.143.295-.138Zm.11 2.132c-.03.04-.066.08-.1.119l-.046-.046c.04-.034.078-.07.12-.103.001-.001.03.025.026.03Zm-8.976 7.014c.003-.062.009-.125.006-.187-.003-.048-.019-.094-.036-.18.216.15.214.254.03.367Zm-.56 2.717c.028-.014.058-.032.085-.038.007-.002.013.024.037.07a4.186 4.186 0 0 0-.122-.032Zm.197-2.798c-.046-.05-.057-.02-.068.013l-.11-.091c.02-.042-.01-.073-.045-.105.009-.04.017-.079.024-.119.045.05.057.02.067-.013l.11.091c-.02.042.01.073.044.105-.006.039-.015.079-.022.119Zm1.543-3.84c-.446.261-.655.252-.784-.258.323.108.499.165.784.258Zm-.91-4.654c.008-.008.014-.016.022-.022-.077-.027-.064-.128-.039-.25.093-.066.183-.13.316-.222-.049.16-.087.29-.134.448.011.008.023.017.034.03-.06.047-.114.092-.198.163-.002-.067-.022-.122-.001-.147Zm-.333.938c.004-.022.005-.044.016-.065.007-.012.03-.022.043-.033 0 .024.004.046.005.068-.028.012-.046.022-.064.03ZM48.2 5.766c.153-.033.157.256.375.377-.06.203-.487-.1-.375-.377Zm-.042 1.202c-.075-.06-.148-.121-.222-.182-.095-.225.036-.355.137-.37.036.032.074.061.11.091.067.153.118.433-.025.46Zm.41-1.947c-.024.132-.024.132-.241.276.036-.169.141-.213.241-.276Zm-.586-3.243c0-.02-.01-.048 0-.058.017-.02.048-.027.072-.04.003.02.003.037.004.063l-.076.035Zm-.218.95c-.042-.049-.045-.106-.1-.151.02-.04.068-.014.078-.073.044.048.045.105.1.15-.02.04-.067.014-.078.073Zm-.723.33c.18-.2.315-.319.43-.265-.143.212-.246.28-.43.266Zm-.25-2.29c.113-.09.198-.161.285-.232l.044.015c-.042.112-.084.223-.144.39l-.184-.172Zm-.103 1.267c-.137-.121-.137-.243 0-.364.136.121.136.243 0 .364Zm-2.32-.363c-.026-.033-.05-.068-.076-.103.144-.1.292-.199.44-.297.038.047.08.095.12.142-.162.087-.323.174-.484.258Zm-.962-.753c.288.112.463.177.66.254-.408.245-.408.245-.66-.254Zm6.52-.497-.073-.078h-.403c-.04.365.612.646.27 1.103-.217-.351-.407-.654-.617-.992l.052-.11h-4.214a.058.058 0 0 0-.006.004c-.079.052-.164.096-.16-.005H43.34l.04.02c-.12.1-.222.208-.244.196-.108-.058-.2-.138-.293-.216h-.654v2c.497.102.434.335.17.747-.07-.274-.118-.461-.17-.657v1.663h4.517a.86.86 0 0 1 .19-.13l-.098.13h.944c.007-.134.009-.271.031-.413.024-.144.089-.198.257-.254.043-.015.086-.024.133-.036l.27.25-.011.035c.058-.023.112-.01.161-.006.026.001.055.07.068.114.003.014-.04.058-.06.057-.067-.001-.132-.011-.217-.024-.1.275-.167.313-.338.267.002-.008.005-.023.01-.026.107-.07.23-.135.264-.247a.14.14 0 0 0-.023-.004.507.507 0 0 1 .032-.048c.001-.012.004-.024.001-.037-.012-.157-.185-.2-.464-.097.07.112-.113.261.006.359.065.055.065.18.102.295-.06.007-.106.01-.151.017v3.883c.13.125.108.348 0 .343v.719c.166-.122.304-.128.491-.04l.037-.036v.054c.033.017.067.035.102.057-.021.082-.041.164-.063.245.335-.147.52-.383.324-.923-.1-.279.372-.74.612-1.105.171-.253.391-.482.587-.72l-.009-.032.015.005c-.065-.242-.13-.483-.199-.725h-.025l.02-.02c-.36-.609-.212-1.12.315-1.603.128-.116.244-.248.348-.39l-.017-.018.027.006c.102-.144.193-.294.266-.446.09-.186.016-.435.016-.648.345.072.555.123.649.201a.643.643 0 0 0 .03-.015c-.005.009-.01.018-.017.027.05.047.059.105.032.183a.679.679 0 0 1 .15-.164c.021.123.077.202.28.052.061-.134-.164-.092.01-.298 0-.002-.004-.003-.005-.003l.006-.02a4.646 4.646 0 0 0-.054-.13c.166-.077.081.05.054.13a.26.26 0 0 1 .006.015l-.006.008.155.048.265-.244c.006.009.015.017.022.026l-.152.2c.024.021.058.029.071.058.049.105.002.202-.149.377-.08.091-.143.199-.215.3h.008c-.003.002-.007.005-.01.01.018.217.005.232-.32.384.054-.177.199-.27.32-.385V3.66l.002-.004c-.126.004-.182-.115-.366-.004-.112.067-.222.13-.333.194a2.3 2.3 0 0 1 .274.345l-.567-.11c-.169.239-.313.503-.321.752-.016.568-.394.852-.774 1.175l.005.017h.735l.28.958c-.33-.094-.577-.163-.816-.233l.003.017a.029.029 0 0 1-.009.01c.084.3.236.604.213.895-.027.344.173.388.417.443l.02-.006.02-.006c-.005-.238-.33-.549.06-.718l-.012-.002c.014-.032.03-.064.043-.096l.3-.016a.281.281 0 0 1 .1-.157h.185c.114.081.125.184.073.292-.065.11-.17.058-.254.072a.324.324 0 0 1-.038-.037l-.006.001a1.29 1.29 0 0 1-.186-.02c.027.27.184.55-.265.68v.021l-.04-.008-1.123.31c.068.12.28.365.233.414a.564.564 0 0 0-.063.084.515.515 0 0 1-.023.092h-.024c-.133.318-.032.718-.339.895-.31.181-.755.19-1.144.227-.012 0-.024-.006-.039-.016a.554.554 0 0 1-.085.02c-.027.006-.054.003-.113.003v.518c.194.264.38.514.5.787.163.38.05.734-.48.825l-.007.021-.013-.001v1.46c.074.073.161.139.265.201.069.042.14.102.208.17.09-.023.172-.064.247-.007-.083.052-.134.08-.169.093.197.223.369.515.429.718.055.182.199.363.354.493.274.228.39.44.081.734-.339-.165-.69-.338-1.1-.54.165-.491-.027-.818-.315-1.107v2.988c.174.039.36-.18.528-.18.085.057.088.138.067.226a.94.94 0 0 1 .17.156l.05-.054c.01.01.017.019.028.028l-.06.053a.326.326 0 0 1 .03.348c-.151-.107-.248-.224-.279-.354a.373.373 0 0 0-.03.182c-.058.063-.113.13-.167.195.167.012.401.301.36.57-.033.316-.448-.038-.52-.293a.508.508 0 0 1 .005-.098 2.069 2.069 0 0 1-.182.178v1.307l.089-.058c-.001.138-.012.192-.09.198v.207h.446c-.003-.007-.007-.012-.008-.022.226-.263.245-.266.468-.069a3.052 3.052 0 0 1-.142.091h1.36l.11-.161c.038.01.073.011.094.03.041.035.037.084.01.131h2.358v-.785a.037.037 0 0 0-.004-.007l-.48-.247c-.263-.059-.525-.123-.788-.183l.103-.242c.226.11.452.22.679.328.174.011.335.028.49.05v-1.814l-.031.102c-.182-.002-.337-.018-.246-.331l.277-.1v-1.331c-.166.02-.263.033-.375.048.027-.113.05-.202.087-.349.1.084.178.148.288.237V13.57c-.006-.006-.013-.01-.018-.016.005-.008.012-.013.018-.018v-.156a1.49 1.49 0 0 1-.038-.066c-.07.128-.191.31-.394.617-.156-.372-.157-.378.432-1.016V6.33c-.008.028-.02.059-.033.093-.029-.075-.033-.163-.081-.191-.048-.03-.149-.024-.21.018-.043.031-.07.149-.082.223-.008.054.006.103.016.152l.016.015c-.002.005-.004.01-.004.015l.308.293-.434.145c.05-.174.086-.307.126-.438-.003-.003-.006-.006-.009-.007l-.003-.023c-.186-.17-.183-.181.012-.52.203-.033.32-.05.378-.026v-.476c-.063-.017-.11-.054-.147-.129a.303.303 0 0 1-.194-.025c-.093-.094-.086-.194-.002-.3.158.02.213.166.325.24a.37.37 0 0 1-.036.035l.054-.01V4.097h5.685V1.176a.167.167 0 0 1-.05-.028c.017-.029.033-.058.05-.092V.344h-8.245a.716.716 0 0 1-.022.078ZM63.616 13.102a.761.761 0 0 0 .408-.277c.033-.043.04-.102.054-.156-.146.131-.313.213-.462.433M69.282 16.354h-.173l.064.103.109-.103M64.078 12.669l.011-.013-.004-.006-.003.001-.004.018"/>
        <path fill="#992337" d="M68.56 18.177c.26-.086.52-.176.918-.31-.195.538-.54.467-.919.31Zm1.403.678c.07.18.141.269.125.343-.022.1-.11.185-.168.276-.066-.068-.166-.131-.182-.209-.011-.062.074-.143.225-.41Zm.672-.698c.042.047.043.104.1.149-.021.04-.067.015-.079.073-.043-.048-.044-.104-.1-.151.021-.038.068-.013.08-.071Zm.02.78.59-.348c.192.605-.353.349-.59.348Zm-2.091-1.343.019.33-.275.21c.089-.185.148-.312.256-.54Zm-1.838-.597a28.766 28.766 0 0 1-.327-.14c.265-.118.642-.5.57.146.361-.081.723-.158 1.11-.24-.55.615-.843.66-1.353.234Zm-1.156 1.84c-.195-.01-.217-.193-.361-.232.144-.147.27-.13.408-.012-.016.08-.032.16-.047.244Zm-1.388-5.998c-.538.567-.604.599-.895.433.072-.078.141-.151.207-.227.073-.082.141-.166.26-.306-.178.035-.416.194-.394-.07.073-.086.164-.187.244-.28.043 0 .072-.01.083.003.063.08.075.217.262.152.065-.022.094.064.136.106.168-.072.142.05.097.19Zm-.919 6.172c-.134-.113-.14-.113-.057-.56.154.237.145.396.057.56Zm-.227-1.783c.16.185.16.366 0 .55-.158-.184-.158-.365 0-.55Zm-.344-6.793.249-.131c-.058.098-.118.186-.25.13Zm-.304-4.982c-.14-.305.15-.364.268-.054-.012.206-.101.224-.268.054Zm.167 10.23c-.002.024-.076.052-.12.065-.015.004-.061-.038-.06-.06.003-.08.018-.16.037-.287.19.102.148.201.143.281Zm.475-6.608.111.09-.023.12-.11-.091.022-.119Zm.309 3.176c.072.026.122.046.183.07-.21.169-.21.169-.183-.07Zm.36-8.985c.028-.009.06-.002.128-.002.091.17.085.27-.024.36-.065-.06-.132-.114-.19-.177-.033-.033-.047-.08-.07-.12.052-.022.104-.046.156-.06Zm.153 9.12c.062-.089.113-.169.17-.25.078.119.06.148-.17.25Zm-2.625.013c-.095-.095-.105-.206-.065-.328.087.132.188.308.065.328Zm-.756.49c-.472-.612-.145-.674.41-.748l-.41.747Zm.086-11.614c.025.001.055.072.068.115.004.013-.04.058-.06.057-.085-.003-.17-.017-.304-.035.11-.18.212-.142.296-.137Zm.072 4.31.023-.12c.037.032.073.063.11.092l-.022.118a4.16 4.16 0 0 1-.11-.09Zm.06 4.308c.093.095.106.206.063.328l-.166-.137c0-.142.07-.125.103-.19Zm.058-5.897c.026.002.055.072.068.115.004.014-.04.058-.06.057-.087-.003-.17-.018-.304-.035.11-.18.21-.142.296-.137Zm8.679 12.625c-.2.09-.308.08-.395-.024l.03-.03-.664-.213h-.853a.71.71 0 0 1-.073.239c-.043-.079-.087-.16-.132-.239H64.86V14.14a.173.173 0 0 1-.017.01c.003-.035-.005-.064.006-.077l.011-.005V.344h-4.695v.592c.075-.082.18-.033.317.061-.13.1-.225.12-.317.066v18.031c.151-.03.305-.059.457-.09l.029.093c-.16.049-.319.1-.478.152a.468.468 0 0 0-.008-.028v.886h1.708c.134-.084.26-.12.383-.087-.02.032-.044.06-.066.087h6.447c-.015-.003-.029-.009-.044-.014l.082-.156c.12.057.24.115.36.17h4.105v-3.753h-3.765l.05.267ZM87.427 8.114h-.109c-.039.036-.08.07-.13.105.096-.045.174-.08.239-.105M87.785 8.114h-.014l.014.007v-.007"/>
        <path fill="#992337" d="M87.6 19.005c-.127.126-.205.21-.349.212.04-.084.071-.152.105-.218l.289-.046c.065-.046.12-.084.196-.135-.056.138-.117.184-.241.187Zm-.41-1.228c.253.064.024.21.063.299-.16-.095-.166-.195-.064-.299Zm-.302 1.814-.169-.035c.02-.072.061-.145.098-.23.05-.01.103-.018.15-.026.043.102.011.2-.079.291Zm-.023-2.762c.093.194.085.295-.025.377-.101-.088-.193-.183-.336-.313.165-.028.248-.043.361-.064Zm-1.63 1.443-.222-.123c.096-.09.181-.172.32-.308l-.097.431Zm-.34-.055a.693.693 0 0 1-.07-.026l.028-.063c.023.01.05.017.067.033.004.005-.016.038-.025.056Zm-1.318 1.186c-.11-.08.094-.248.017-.34 0-.002.064-.067.064-.066.085.073.149-.104.253-.087.082.333.082.333-.334.493Zm-1.628-.084c-.073.021-.144.003-.22.001.11-.21.266-.205.411-.29l.079.138c-.1.058-.187.122-.27.15Zm-1.13-1.605c-.026.011-.056.035-.076.034-.024-.001-.04-.023-.06-.036.028-.018.055-.043.081-.05.027-.008.056 0 .082 0-.008.018-.018.035-.027.052Zm2.976-.505c.137.121.137.241 0 .363-.137-.122-.137-.242 0-.363ZM79.989 6.87c.139.12.139.241 0 .364-.136-.123-.136-.243 0-.364Zm-3.152-5.572c.51.12.996.223 1.461.342a.486.486 0 0 1 .422.03.874.874 0 0 1-.074.064c.537.153 1.044.338 1.523.612.3.17.791.232 1.239-.078.248-.173.407-.263.59-.283.007-.058.017-.123.029-.21.137.074.154.145.151.21.216.02.493.113.96.26-.498.12-1.017.197-1.488.38-.486.185-1.146-.223-1.53.418-.701-1.097-2.25-.885-3.283-1.745ZM79.57 3.72c-.11.019-.126-.009-.097-.159.052-.012.104-.026.172-.04.007-.042.01-.083.023-.123.01-.028.03-.058.045-.087a.62.62 0 0 0 .05-.006c.004.067.005.134.007.209l-.2.206Zm-.641.52c.156-.119.261-.125.372-.025-.078.196-.199.142-.372.026Zm.009 1.99c-.003.024-.076.052-.12.064-.016.004-.062-.038-.06-.058.001-.08.017-.161.035-.289.19.104.15.202.145.283Zm-.436 1.508c-.16-.095-.166-.196-.063-.3.253.065.024.212.063.3Zm-.279-2.445.02-.047c.041.002.083.003.125.003-.01.025-.018.05-.029.075l-.116-.031Zm.176 12.654c-.035.032-.11.05-.143.038-.104-.038-.107-.148-.134-.305.134.045.226.063.3.104.054.028.04.11-.023.163Zm-.601-9.184.304-.057c-.241.196-.26.2-.304.057Zm-.743-1.572-.1-.03.015-.035.105-.005c-.007.025-.015.048-.02.07Zm-.11 7.184c-.014.001-.024-.015-.037-.026.02-.009.04-.023.059-.026.02-.001.037.006.056.01-.027.014-.053.034-.079.042Zm-.248-3.999.272-.135c-.055.211-.172.155-.256.194a4.414 4.414 0 0 1-.016-.059Zm.063 5.198c-.063-.058-.13-.114-.19-.176-.031-.033-.047-.082-.069-.123.052-.02.102-.043.156-.06.028-.007.06 0 .129 0 .091.168.083.27-.026.359Zm-.546 3.14c-.148.033-.078-.143-.078-.277.24-.18.287-.071.397-.06-.096.188-.197.312-.319.338Zm-.412-.838c.184-.066.369-.131.552-.198-.175.164-.361.227-.551.26l-.001-.062Zm.078-1.15c.01-.007.058.018.057.025a.34.34 0 0 1-.066.104c-.006.008-.043-.01-.083-.022.038-.045.06-.082.092-.106Zm.223.558c-.12.1-.146.12-.168.14-.013-.023-.025-.046-.032-.07 0-.006.034-.035.053-.043.031-.01.062-.013.147-.027ZM80.97 1.94c.085-.067.148-.025.234.163l-.27.15c-.044-.127-.094-.211.036-.313Zm1.592-.83.07.017-.16.255c-.04-.13.02-.202.09-.272Zm.165.138c.017 0 .034 0 .053-.003l-.047.168-.057.003.05-.168Zm.79 1.71c.007.016.024.041.02.044-.037.032-.076.061-.115.091l-.023-.035.118-.1Zm.256-.027c.042.074.1.135.002.225-.082.076-.174.204-.298.071.109-.106.2-.2.296-.296Zm.463.14c.03.114.059.19-.06.312-.037-.087-.015-.168.06-.312Zm.143-2.384c.118-.004.241-.008.354.098l-.327.103c-.044.195-.044.198.09.21l-.004-.004a.005.005 0 0 0 .003 0 4.413 4.413 0 0 0-.106-.101l.267-.047.001.052c-.053.031-.107.064-.162.095a.041.041 0 0 1 .006.005h-.006c.022.019.045.056.068.049.128-.043.136-.054.29-.275l.073.257a36.19 36.19 0 0 1-.268.193l.175.144c-.217.001-.397.086-.519-.014-.001-.063.1-.194-.062-.152-.03-.13-.069-.256-.083-.393-.008-.077.126-.217.21-.22Zm-4.446 2.71-.006-.242c.093.048.097.111.006.243Zm5.782-1.975c.05.055.113.117.168.186.029.035.075.092.063.119-.048.103-.152.046-.14.052l-.4-.225c.097-.165.198-.114.31-.132Zm-4.998 8.752c.158.095.164.195.062.3-.253-.065-.024-.212-.062-.3Zm.147-.774c.027.014.052.033.079.05-.016.015-.03.031-.06.062l-.065-.067c.016-.016.04-.045.046-.045Zm.29-1.165.065.139.152-.063c-.06.176-.06.176-.375.272.03-.113.049-.217.158-.348Zm.31 2.454c-.11.075-.231.136-.354.2-.033-.057-.065-.116-.1-.17l.382-.18c.025.055.085.146.073.15Zm3.87-.92c-.516.427-.73-.102-1.177.005.515-.427.73.101 1.178-.005Zm.683-.152c.195.01.217.192.36.23-.143.148-.269.132-.406.014l.046-.244Zm1.142.58c.078-.078.163-.074.16.01-.002.118-.101.33-.281.602-.171-.086-.108-.372.121-.611Zm1.493 7.833c.001-.008.013-.018.027-.027v-1.561H86c-.031.069-.068.14-.113.212-.08.13-.195.198-.29.202-.021-.186-.018-.296.051-.414h-5.276a1.352 1.352 0 0 1-.3.248c0-.168.015-.298.05-.409v-4.53h7.664v-1.444c-.059.022-.123.005-.179.002-.026-.001-.054-.072-.068-.115-.004-.014.041-.06.061-.057.058.005.124-.018.186.012V8.31c-.229-.031-.422-.055-.615-.08l-.046.029.104-.145h-2.006c.008.053 0 .108-.004.162-.006.079-.045.155-.069.23-.108-.015-.21.033-.274-.064l.168-.328h-4.921V4.765a2.283 2.283 0 0 1-.138-.06l.138-.044V4.01h7.477c-.502-.943-.624-1.052-1.738-.854-.693.124-1.138-.003-1.493-.608.866-.183 1.69-.015 2.51.098.475.065.936.12 1.37.046V.344H75.426v19.763H88.68V18.22c-.05-.068-.03-.133-.027-.189ZM98.457 15.5a6.588 6.588 0 0 1-.128.043v.04c.043-.011.086-.026.128-.039V15.5M98.7 15.438l-.044-.012-.083.135.054.018.072-.141M97.48 2.648v.22c.11-.109.13-.18 0-.22M99.133 15.765c-.012-.005-.035-.017-.038-.013-.036.038-.069.08-.105.12.017.011.033.024.049.033l.094-.14M98.63 15.877l-.033.003c-.015.039-.03.076-.041.114l.06-.006c.006-.038.009-.074.015-.11"/>
        <path fill="#992337" d="M94.706 2.881c.2-.223.218-.23.514-.206-.263.238-.277.242-.514.206Zm.292-1.113c-.1.151-.206.158-.316.061.069-.242.223-.023.316-.06ZM94.518.56c.114-.021.19-.004.202.088l-.061.062-.142-.15ZM92.56 1.854c-.113.026-.109-.065-.11-.147.12-.046.12-.046.246.037-.05.04-.094.101-.136.11Zm.046.547c-.095.064-.189.13-.284.195 0-.024 0-.046.002-.07l.292-.2a1.123 1.123 0 0 0-.01.075Zm-1.79-1.171c.298-.401.444-.486.854-.465-.5.505-.638.577-.854.465Zm-.374 1.033c-.102-.143-.102-.143.142-.423l-.142.423ZM90.388.77c.022-.038.055-.08.089-.126.01.028.029.048.019.063-.022.038-.059.076-.09.113-.006-.017-.026-.033-.018-.05Zm2.205-.05.082.109c-.022.016-.041.033-.062.05l-.06-.124a.312.312 0 0 0 .04-.034Zm3.82.961-.106.184c-.082-.117-.082-.117.107-.184Zm.034 7.649a2.85 2.85 0 0 1 .127-.044c.001 0-.01.037-.012.037a3.442 3.442 0 0 1-.132.065l.017-.058Zm.385-5.424c.149.05.13.161.006.361-.112-.046-.199-.084-.288-.122.076-.153.197-.171.282-.239Zm.436-1.417.198-.204-.758.049c.043-.117.12-.205.207-.219.14-.023.32-.155.41-.034.041.057.08.077.161.064.04-.006.102.044.094.074-.032.13.044.16.187.202l-.355.078c.348.092.36.143.132.484-.088-.034-.157-.06-.275-.107v.385c-.126.012-.288.07-.348.019-.057-.05-.127-.066-.247-.08.148-.122.257-.202.356-.295.093-.088.18-.183.257-.283.02-.025-.01-.08-.019-.133Zm.625 5.285c.019-.003.035.008.077.019-.056.079-.115.152-.159.228-.038.067-.058.142-.09.22-.122-.062-.122-.062-.135-.274-.325.013-.383-.081-.255-.44.07-.033.124-.067.178-.083.16-.047.241.016.223.16-.02.189-.02.188.161.17Zm-.139 1.273.326.047c-.185.12-.268.108-.326-.047Zm.326 2.164c.058.034.014.152-.069.18-.104.035-.212.06-.313.067-.08.004-.099-.034-.177-.21.14-.04.25-.084.35-.093a.31.31 0 0 1 .125.017c-.08-.077.015-.234.066-.364.046.082.06.18-.065.364.03.01.058.024.083.04Zm.066 3.793c.102-.037.196-.08.2-.2.003-.074-.02-.14-.032-.208.163-.033.208-.152.223-.322l.218.04-.3.303c.042.124.1.18.205.226.11.048.158.193.226.301.022.035 0 .096.089.076.174-.041.148.092.102.242l.316-.158c-.002.105-.002.194-.005.287.149.007.314-.2.443-.13.02.125.037.237.059.365-.23.377-.246.388-.529.325-.19.143-.19.143-.36.106-.02.073-.04.143-.06.204-.189.093-.268.032-.272-.12-.01 0-.017 0-.027.002-.025.104-.045.194-.067.282-.327.288-.327.288-.412.082l.272-.309a.6.6 0 0 0-.189.148c-.06.068-.166.1-.267.11.046-.058.114-.115.133-.173.017-.056-.016-.112-.028-.169l.229-.182c-.077-.067-.14-.124-.217-.19l-.295.071c.083-.152.164-.284.219-.417.086-.208.054-.255-.163-.296.064-.08.202-.073.212-.201.002-.026.048-.082.077-.095Zm.447-2.712.008-.006a.01.01 0 0 0 0 .004c.05-.02.106-.027.141-.06.065-.057.11-.131.157-.19.091-.007.012.222.184.07l.038.091a.617.617 0 0 1-.434.204c-.083 0-.072-.064-.085-.115a.014.014 0 0 0-.005.002h-.004l-.23.193c.047-.19.146-.175.23-.193Zm-.02-9.637c-.005.012-.005.024-.006.036-.027.01-.058.031-.08.028-.02-.002-.029-.03-.06-.07.066.004.104.005.145.006Zm.076 1.288c.026.03.066.056.072.095.014.093.018.191.007.292-.004.034-.066.091-.107.118-.02.012-.084-.017-.083-.041.01-.14.03-.283.048-.428.02-.01.042-.023.063-.036Zm.098 6.903.003.004c.125-.073.205-.077.232-.012.02.042-.016.092-.126.18a8.088 8.088 0 0 0-.106-.168c-.001 0-.002.003-.004.003 0-.003-.004-.005-.005-.007-.166.038-.166.036-.07-.197l.07.197h.006Zm1.014.32c.053-.093-.061-.147.073-.241.118-.08.017-.14.013-.238.077.005.17-.017.197.018.05.07.081.168.09.263.016.136-.028.285-.091.436-.052.122-.105.245-.029.343-.097.118-.18.26-.293.34a.445.445 0 0 1-.188.061c-.092.11-.186.108-.284.022.041-.15.114-.126.187-.093l.217-.37c-.278.12-.466.11-.597-.004-.117-.103-.316-.129-.339-.342l.556-.595c.14.183.203.423.488.4Zm-.283-.368c.025-.006.05-.011.074-.018.004-.013.007-.03.013-.048l.144.083c-.1.06-.152.072-.161.028a2.473 2.473 0 0 1-.08.004c.004-.018.008-.032.01-.049Zm.25-1.106a7.631 7.631 0 0 0-.053.14l-.042.012.055-.14c.013-.005.028-.009.04-.012Zm-.177-1.96c.058-.095.132-.165.232-.103-.015.042-.017.061-.03.076-.05.062-.096.152-.178.13-.025-.008-.04-.075-.024-.102Zm.54 2.073-.243.087c.126-.13.126-.13.243-.087Zm-1.142 9.941c.033-.294.148-.523.42-.84-.083.296-.098.51-.42.84Zm-1.493-7.576c-.01-.032-.02-.067-.028-.101.02-.01.041-.017.06-.027l.033.093c-.021.01-.063.036-.065.035ZM97.33 4.38c.118-.071.171-.025.207.096-.1.053-.19.103-.275.149-.05-.103-.04-.18.068-.245Zm.209 2.953c-.085-.012-.13-.007-.154-.025-.03-.022-.059-.06-.059-.1 0-.024.062-.097.081-.097.053-.002.114.007.142.04.021.023-.003.09-.01.182Zm.015-3.182c-.01.015-.05.029-.06.023-.017-.01-.023-.035-.04-.068.067-.013.1-.028.108-.019.013.01.006.046-.008.064Zm-.025-.728.005-.011c-.084-.158-.07-.189.205-.442l-.205.442.005.007-.009.007c.047.09-.02.173-.112.231-.033.022-.087-.003-.144-.009l.256-.222-.001-.003Zm-.547.042c.1-.151.206-.157.315-.06-.068.242-.222.023-.315.06Zm-.137 2.054c-.135-.121-.135-.242 0-.363.137.121.137.242 0 .363Zm-.051 7.323c-.258.484-.333.55-.502.432.143-.232.224-.353.292-.41-.016-.076-.026-.135-.04-.207.201-.088.31-.079.395.026l-.16.156.015.003Zm3.169-6.43c.005.017.01.036.013.053-.03.024-.059.05-.093.067-.02.01-.045.002-.116 0l.196-.12Zm.547-4.785c.047.113.07.172.099.238a27.91 27.91 0 0 1-.226.155l.127-.393Zm2.853.735.028.1c-.027-.009-.05-.009-.057-.02-.01-.016-.01-.04-.013-.06l.042-.02Zm1.852 1.432c.027-.03.063-.054.12-.1l-.19.255c.043-.101.05-.134.07-.155Zm-9.663 9.365c.114.001.288.023.591.062a1.96 1.96 0 0 1-.591.1v4.325c.173-.075.335-.128.45-.14-.052.073-.081.127-.09.128a7.052 7.052 0 0 0-.36.127v1.231c.11-.057.26-.065.443-.046.6.062 1.205.086 1.803.142.025.002.034.163.072.384a88.03 88.03 0 0 0-.803-.099c-.188.17-.328.293-.464.417-.2-.433-.68-.242-1.051-.349v.666h.076l.017-.022c.036-.013.07-.027.106-.039-.011.02-.022.042-.034.061h4.532V7.031c-.057-.002-.106-.056-.18-.165-.124.076-.253.152-.257.344-.023-.01-.045-.021-.068-.03l.003-.152-.13.011c.069-.07.12-.129.18-.177.162-.132.205-.141.294-.042.063-.045.115-.077.158-.097V4.097h.183a.29.29 0 0 1 .028-.03h.186c.013.011.025.02.035.03h5.252V.344h-13.02c-.079.169-.196.119-.361.005l.009-.005h-2.128l.032.172c-.19.043-.233.027-.156-.172h-.379v3.753h5.622v9.062Z"/>
    </g>
</svg>
