<svg xmlns="http://www.w3.org/2000/svg" xmlns:xlink="http://www.w3.org/1999/xlink" width="40px" height="36px" viewBox="0 0 40 36" version="1.1">
    <title>icfooter-postnl</title>
    <defs>
        <radialGradient cx="26.6114286%" cy="37.5358255%" fx="26.6114286%" fy="37.5358255%" r="71.1327489%" gradientTransform="translate(0.266114,0.375358),scale(0.986947,1.000000),translate(-0.266114,-0.375358)" id="radialGradient-1">
            <stop stop-color="#FFC429" offset="0%"/>
            <stop stop-color="#F26F23" offset="100%"/>
        </radialGradient>
    </defs>
    <g id="Symbols" stroke="none" stroke-width="1" fill="none" fill-rule="evenodd">
        <g id="Desktop/FooterVertaling" transform="translate(-805.000000, -706.000000)" fill-rule="nonzero">
            <g id="Icons" transform="translate(0.000000, 690.000000)">
                <g id="Group-11" transform="translate(517.000000, 16.000000)">
                    <g id="icfooter-postnl" transform="translate(288.000000, 0.000000)">
                        <rect id="Rectangle" fill="#FFFFFF" x="0" y="0" width="40" height="36" rx="2"/>
                        <g id="postnl-3" transform="translate(8.000000, 7.000000)">
                            <path d="M5.08776238,0 C7.8798271,0 12.3781536,1.76830766 15.356356,3.41252355 C18.6447877,5.24287709 23.267206,8.9346071 23.267206,11.4784883 C23.267206,14.1774842 18.520696,17.7761454 15.356356,19.544453 C12.4712224,21.126623 8.06596475,22.9879995 5.1808312,22.9879995 C4.40525767,22.9879995 3.78479884,22.8639078 3.31945472,22.6157242 C1.05478001,21.3437836 0,15.9457918 0,11.4784883 C0,9.21381358 0.279206472,6.82504709 0.806596475,4.83957885 C1.4270553,2.48183531 2.29569766,0.93068824 3.31945472,0.341252355 C3.7537759,0.124091765 4.34321179,0 5.08776238,0" id="Path" fill="#A6ACB2"/>
                            <path d="M22.4916325,11.5405342 C22.4916325,9.61711181 18.8619483,6.23561121 14.9840807,4.09502826 C10.4857542,1.64421589 5.39799179,0.217160589 3.72275296,1.11682589 C1.83035354,2.17160589 0.775573533,7.44550592 0.775573533,11.5405342 C0.775573533,15.6665854 1.76830766,20.8784395 3.72275296,21.9642425 C5.52208356,22.9569766 10.3926853,21.4988983 14.9530577,18.9550172 C18.9239942,16.8144342 22.4916325,13.5880483 22.4916325,11.5405342" id="Path" fill="url(#radialGradient-1)"/>
                            <path d="M17.4038701,13.4949795 L17.3728471,11.5405342 C17.3728471,11.106213 17.2177324,10.9200753 16.8764801,10.9200753 C16.7523883,10.9200753 16.5972736,10.9510983 16.4731818,11.0441671 C16.3180671,11.1372359 16.2249983,11.1992818 16.1629524,11.2303048 L16.1319295,11.2613277 L16.1319295,13.4639565 C16.1319295,13.4639565 16.1319295,13.4949795 16.1009066,13.4949795 L15.2322642,13.4949795 C15.2322642,13.4949795 15.2012413,13.4949795 15.2012413,13.4639565 L15.2012413,10.3616624 C15.2012413,10.2996165 15.2322642,10.2685936 15.2943101,10.2685936 L16.0698836,10.2685936 C16.0698836,10.2685936 16.1009066,10.2685936 16.1009066,10.2996165 L16.1009066,10.5478001 C16.1009066,10.5478001 16.1009066,10.578823 16.1319295,10.578823 L16.1629524,10.578823 L16.1939754,10.5478001 C16.2870442,10.4857542 16.4421589,10.3926853 16.5352277,10.3616624 C16.7523883,10.2685936 16.9695489,10.2375706 17.1556866,10.2375706 C17.8692142,10.2375706 18.2414895,10.6408689 18.2414895,11.4164424 L18.2414895,13.4949795 C18.2414895,13.4949795 18.2414895,13.5260024 18.2104666,13.5260024 L17.4038701,13.4949795 M19.017063,13.4949795 C18.9860401,13.4949795 18.9860401,13.4949795 19.017063,13.4949795 L18.9860401,8.71744651 C18.9860401,8.68642357 18.9860401,8.68642357 19.017063,8.68642357 C19.0791089,8.68642357 19.544453,8.99665299 19.6995677,9.15176769 C19.8236595,9.27585946 19.8857054,9.46199711 19.8857054,9.61711181 L19.8857054,13.4329336 C19.8857054,13.4329336 19.8857054,13.4639565 19.8546825,13.4639565 L19.017063,13.4639565" id="Shape" fill="#FFFFFF"/>
                            <path d="M9.49302005,11.8817865 C9.49302005,13.0296354 8.74846946,13.5570254 7.81778122,13.5570254 C6.88709298,13.5570254 6.14254238,13.0296354 6.14254238,11.8817865 C6.14254238,10.7339377 6.88709298,10.2065477 7.81778122,10.2065477 C8.74846946,10.2065477 9.49302005,10.7339377 9.49302005,11.8817865 M8.56233181,11.8817865 C8.56233181,11.2613277 8.25210239,11.0131442 7.84880416,11.0131442 C7.44550592,11.0131442 7.13527651,11.2923506 7.13527651,11.8817865 C7.13527651,12.4401995 7.44550592,12.7504289 7.84880416,12.7504289 C8.25210239,12.7814518 8.56233181,12.4712224 8.56233181,11.8817865 Z M13.8672548,9.39995122 C13.8672548,9.36892828 13.8672548,9.36892828 13.8362318,9.36892828 C13.774186,9.36892828 13.2778189,9.6791577 13.1537271,9.8342724 C13.0296354,9.95836417 12.9675895,10.1445018 12.9675895,10.2996165 L12.9675895,12.3781536 C12.9675895,13.2778189 13.4949795,13.5570254 14.0533924,13.5570254 C14.3636218,13.5570254 14.5807824,13.5260024 14.7048742,13.4329336 C14.7358971,13.4329336 14.7669201,13.4019107 14.7669201,13.3398648 L14.7669201,12.7504289 C14.7669201,12.7194059 14.7669201,12.7194059 14.7358971,12.7194059 C14.7048742,12.7194059 14.4877136,12.8124748 14.3636218,12.8124748 C14.0844154,12.8124748 13.8982777,12.688383 13.8982777,12.2230389 L13.8982777,11.0441671 C13.8982777,11.0131442 13.8982777,11.0131442 13.9293007,11.0131442 L14.7048742,11.0131442 C14.7358971,11.0131442 14.7358971,11.0131442 14.7358971,10.9821212 L14.7358971,10.3616624 C14.7358971,10.2996165 14.7048742,10.2685936 14.6428283,10.2685936 L13.9293007,10.2685936 C13.8982777,10.2685936 13.8982777,10.2685936 13.8982777,10.2375706 L13.8672548,9.39995122 M2.66797295,10.3926853 C2.66797295,10.3306395 2.73001884,10.2996165 2.76104178,10.2996165 L3.97093649,10.2996165 C5.1808312,10.2996165 5.80129003,11.0131442 5.80129003,11.9438324 C5.80129003,12.8745207 5.11878532,13.5260024 3.97093649,13.5260024 L3.59866119,13.5260024 C3.56763825,13.5260024 3.56763825,13.5260024 3.56763825,13.5570254 L3.56763825,15.0771495 C3.56763825,15.1081724 3.56763825,15.1081724 3.53661531,15.1081724 C3.47456943,15.1081724 2.97820237,14.797943 2.8541106,14.6428283 C2.73001884,14.5187365 2.66797295,14.3325989 2.66797295,14.1774842 L2.66797295,10.3926853 M4.90162473,11.8817865 C4.90162473,11.4784883 4.6534412,11.106213 3.97093649,11.106213 L3.59866119,11.106213 C3.56763825,11.106213 3.56763825,11.106213 3.56763825,11.1372359 L3.56763825,12.6263371 C3.56763825,12.6573601 3.56763825,12.6573601 3.59866119,12.6573601 L3.97093649,12.6573601 C4.77753297,12.6573601 4.90162473,12.0989471 4.90162473,11.8817865 Z M12.0989471,11.7576948 C11.9128095,11.633603 11.6646259,11.5715571 11.4474654,11.5405342 C11.4164424,11.5405342 11.2613277,11.5095112 11.2303048,11.4784883 C10.9510983,11.4164424 10.7339377,11.3543965 10.7339377,11.1992818 C10.7339377,11.0441671 10.8890524,10.9510983 11.106213,10.9510983 C11.3854195,10.9510983 11.7887177,11.0131442 12.2230389,11.1682589 C12.2540618,11.1682589 12.2850848,11.1682589 12.2850848,11.1372359 L12.2850848,10.5167771 C12.2850848,10.4857542 12.2540618,10.4237083 12.2230389,10.4237083 C12.0679242,10.3616624 11.6025801,10.2375706 11.2303048,10.2375706 C10.7959836,10.2375706 10.4547312,10.3306395 10.2065477,10.5167771 C9.95836417,10.7029148 9.8342724,10.9510983 9.8342724,11.2613277 C9.8342724,11.9748554 10.4237083,12.0989471 10.9821212,12.2230389 C11.0751901,12.2540618 11.0441671,12.2540618 11.0751901,12.2540618 C11.3233736,12.3161077 11.6025801,12.3781536 11.6025801,12.5642912 C11.6025801,12.6263371 11.5715571,12.688383 11.5405342,12.7194059 C11.4784883,12.7814518 11.3543965,12.8124748 11.1682589,12.8124748 C10.8270065,12.8124748 10.1445018,12.6573601 9.95836417,12.5953142 C9.92734123,12.5953142 9.92734123,12.6263371 9.92734123,12.6263371 L9.92734123,13.2467959 C9.92734123,13.2778189 9.95836417,13.3398648 9.98938711,13.3398648 C9.98938711,13.3398648 10.578823,13.5260024 11.106213,13.5260024 C12.0679242,13.5260024 12.5642912,13.1537271 12.5642912,12.4712224 C12.4712224,12.160993 12.3471307,11.9128095 12.0989471,11.7576948" id="Shape" fill="#383792"/>
                            <path d="M6.42174886,9.46199711 C6.35970297,9.46199711 6.29765709,9.43097417 6.29765709,9.33790534 L6.29765709,8.96563005 C6.29765709,8.87256122 6.35970297,8.81051534 6.4527718,8.81051534 L9.21381358,8.81051534 C9.3068824,8.81051534 9.36892828,8.87256122 9.36892828,8.96563005 L9.36892828,9.3068824 C9.36892828,9.39995122 9.33790534,9.43097417 9.24483652,9.43097417 L6.42174886,9.43097417 M8.90358416,8.46926298 C8.87256122,8.46926298 8.84153828,8.46926298 8.84153828,8.43824004 L8.84153828,8.37619416 C8.9346071,8.09698769 9.24483652,7.22834533 9.24483652,7.22834533 C9.27585946,7.16629945 9.24483652,7.10425357 9.18279063,7.07323062 L9.02767593,7.01118474 L8.99665299,7.01118474 C8.96563005,7.01118474 8.9346071,7.01118474 8.9346071,7.04220768 C8.87256122,7.19732239 8.84153828,7.29039121 8.7794924,7.44550592 C8.7794924,7.47652886 8.74846946,7.47652886 8.71744651,7.47652886 L8.4072171,7.47652886 C8.37619416,7.47652886 8.37619416,7.47652886 8.34517122,7.44550592 L8.34517122,7.38346004 C8.43824004,7.10425357 8.50028593,6.88709298 8.62437769,6.63890945 C8.65540063,6.6078865 8.68642357,6.51481768 8.81051534,6.51481768 L8.87256122,6.51481768 C8.96563005,6.54584062 9.08972181,6.57686356 9.21381358,6.6078865 C9.3068824,6.63890945 9.39995122,6.66993239 9.52404299,6.70095533 C9.8342724,6.82504709 9.8342724,7.04220768 9.77222652,7.25936827 C9.74120358,7.38346004 9.55506593,7.91085004 9.43097417,8.22107945 C9.39995122,8.28312534 9.39995122,8.34517122 9.36892828,8.37619416 C9.36892828,8.4072171 9.33790534,8.43824004 9.27585946,8.43824004 L8.90358416,8.43824004 L8.90358416,8.46926298 Z M7.63164357,8.46926298 C7.56959769,8.46926298 7.56959769,8.4072171 7.56959769,8.37619416 C7.56959769,8.34517122 7.53857474,6.73197827 7.53857474,6.51481768 C7.53857474,6.48379474 7.53857474,6.4527718 7.56959769,6.4527718 C7.56959769,6.4527718 7.60062063,6.42174886 7.63164357,6.42174886 L8.06596475,6.42174886 C8.09698769,6.42174886 8.09698769,6.42174886 8.12801063,6.4527718 C8.15903357,6.48379474 8.15903357,6.51481768 8.15903357,6.51481768 C8.15903357,6.73197827 8.12801063,8.34517122 8.12801063,8.37619416 C8.12801063,8.37619416 8.12801063,8.46926298 8.06596475,8.46926298 L7.63164357,8.46926298 Z M6.35970297,8.46926298 C6.29765709,8.46926298 6.29765709,8.43824004 6.26663415,8.4072171 C6.26663415,8.37619416 6.23561121,8.31414828 6.20458827,8.25210239 C6.0804965,7.94187298 5.92538179,7.44550592 5.86333591,7.29039121 C5.80129003,7.07323062 5.80129003,6.82504709 6.11151944,6.73197827 C6.20458827,6.70095533 6.32868003,6.66993239 6.42174886,6.63890945 C6.54584062,6.6078865 6.66993239,6.57686356 6.76300121,6.54584062 L6.82504709,6.54584062 C6.91811592,6.54584062 6.9801618,6.6078865 7.01118474,6.66993239 C7.13527651,6.91811592 7.19732239,7.13527651 7.29039121,7.41448298 L7.29039121,7.47652886 C7.29039121,7.47652886 7.25936827,7.5075518 7.22834533,7.5075518 L6.91811592,7.5075518 C6.88709298,7.5075518 6.85607003,7.5075518 6.85607003,7.47652886 C6.79402415,7.32141415 6.76300121,7.19732239 6.70095533,7.07323062 C6.70095533,7.07323062 6.66993239,7.04220768 6.63890945,7.04220768 L6.6078865,7.04220768 L6.4527718,7.10425357 C6.39072591,7.13527651 6.35970297,7.19732239 6.39072591,7.25936827 C6.39072591,7.25936827 6.70095533,8.12801063 6.79402415,8.4072171 L6.79402415,8.46926298 C6.79402415,8.46926298 6.76300121,8.50028593 6.73197827,8.50028593 C6.73197827,8.46926298 6.35970297,8.46926298 6.35970297,8.46926298 L6.35970297,8.46926298 Z M7.81778122,6.11151944 C7.78675827,6.11151944 7.78675827,6.11151944 7.75573533,6.0804965 C7.63164357,5.98742768 7.5075518,5.86333591 7.41448298,5.73924415 C7.41448298,5.73924415 7.38346004,5.70822121 7.41448298,5.64617532 C7.5075518,5.49106062 7.66266651,5.39799179 7.78675827,5.27390003 L7.84880416,5.27390003 C7.97289592,5.36696885 8.09698769,5.49106062 8.22107945,5.64617532 C8.25210239,5.67719826 8.25210239,5.70822121 8.22107945,5.73924415 C8.12801063,5.86333591 8.00391886,5.98742768 7.8798271,6.0804965 C7.84880416,6.11151944 7.84880416,6.11151944 7.81778122,6.11151944 L7.81778122,6.11151944 Z" id="Shape" fill="#FFFFFF"/>
                        </g>
                    </g>
                </g>
            </g>
        </g>
    </g>
</svg>