<svg xmlns="http://www.w3.org/2000/svg" viewBox="0 0 20 21">
    <path d="m17.272 3.457-1.327-.14A56.512 56.512 0 0 0 4 3.316l-1.272.14C1.156 3.64-.024 5.024 0 6.655v7.69c-.024 1.631 1.156 3.015 2.728 3.198l1.327.14c3.97.422 7.974.422 11.945 0l1.272-.14c1.572-.183 2.752-1.567 2.728-3.198v-7.69c.024-1.631-1.156-3.015-2.728-3.198Zm-4.639 7.118-3.604 2.342a.712.712 0 0 1-.674-.003.674.674 0 0 1-.355-.556V7.674c0-.25.143-.478.37-.595a.712.712 0 0 1 .714.037l3.605 2.342a.662.662 0 0 1 .311.558.662.662 0 0 1-.311.559h-.056Z"
          fill="#A29480" fill-rule="nonzero"/>
</svg>